<svg width="50" height="50" viewBox="0 0 50 50" fill="none" xmlns="http://www.w3.org/2000/svg">
<g clip-path="url(#clip0_435_2880)">
<path d="M42.5 0H7.5C3.35786 0 0 3.35786 0 7.5V42.5C0 46.6421 3.35786 50 7.5 50H42.5C46.6421 50 50 46.6421 50 42.5V7.5C50 3.35786 46.6421 0 42.5 0Z" fill="#0077B5"/>
<path d="M13.8672 17.0898C15.8627 17.0898 17.4805 15.4721 17.4805 13.4766C17.4805 11.481 15.8627 9.86328 13.8672 9.86328C11.8716 9.86328 10.2539 11.481 10.2539 13.4766C10.2539 15.4721 11.8716 17.0898 13.8672 17.0898Z" fill="white"/>
<path d="M23.8281 18.9453V38.2812V18.9453ZM13.8672 18.9453V38.2812V18.9453Z" fill="white"/>
<path d="M23.8281 18.9453V38.2812M13.8672 18.9453V38.2812" stroke="white" stroke-width="6.44531"/>
<path d="M26.9531 27.5391C26.9531 25.5859 28.2227 23.6328 30.4688 23.6328C32.8125 23.6328 33.6914 25.3906 33.6914 28.0273V38.2812H40.1367V27.2461C40.1367 21.2891 37.0117 18.5547 32.7148 18.5547C29.3945 18.5547 27.7344 20.4102 26.9531 21.6797" fill="white"/>
</g>
<defs>
<clipPath id="clip0_435_2880">
<rect width="50" height="50" fill="white"/>
</clipPath>
</defs>
</svg>
