<svg width="38" height="30" viewBox="0 0 38 30" fill="none" xmlns="http://www.w3.org/2000/svg">
<path d="M3.06697 17.0781C2.53639 17.0781 2.01771 17.2355 1.57655 17.5302C1.13538 17.825 0.791533 18.244 0.588486 18.7342C0.38544 19.2244 0.332313 19.7638 0.435826 20.2842C0.539338 20.8046 0.79484 21.2826 1.17002 21.6578C1.5452 22.0329 2.02321 22.2884 2.5436 22.392C3.064 22.4955 3.6034 22.4423 4.09359 22.2393C4.58379 22.0362 5.00277 21.6924 5.29755 21.2512C5.59233 20.8101 5.74966 20.2914 5.74966 19.7608C5.74966 19.0493 5.46702 18.367 4.96392 17.8639C4.46082 17.3608 3.77847 17.0781 3.06697 17.0781ZM3.06697 20.655C2.89011 20.655 2.71722 20.6026 2.57016 20.5043C2.42311 20.4061 2.30849 20.2664 2.24081 20.103C2.17313 19.9396 2.15542 19.7598 2.18992 19.5864C2.22443 19.4129 2.30959 19.2536 2.43465 19.1285C2.55972 19.0034 2.71905 18.9183 2.89252 18.8838C3.06598 18.8493 3.24578 18.867 3.40918 18.9347C3.57258 19.0023 3.71224 19.1169 3.8105 19.264C3.90876 19.4111 3.9612 19.584 3.9612 19.7608C3.9612 19.998 3.86699 20.2254 3.69929 20.3931C3.53159 20.5608 3.30414 20.655 3.06697 20.655Z" fill="#F05A32"/>
<path d="M4.85547 18.8699C4.73778 18.8706 4.62112 18.848 4.51217 18.8035C4.40322 18.759 4.30412 18.6934 4.22057 18.6106C4.13675 18.5274 4.07023 18.4285 4.02483 18.3196C3.97943 18.2106 3.95605 18.0937 3.95605 17.9757C3.95605 17.8576 3.97943 17.7407 4.02483 17.6318C4.07023 17.5228 4.13675 17.4239 4.22057 17.3408L11.2671 10.2942C11.3505 10.2109 11.4495 10.1447 11.5584 10.0996C11.6673 10.0545 11.7841 10.0313 11.902 10.0313C12.0199 10.0312 12.1367 10.0545 12.2456 10.0996C12.3546 10.1447 12.4535 10.2109 12.5369 10.2942C12.6203 10.3776 12.6864 10.4766 12.7316 10.5855C12.7767 10.6945 12.7999 10.8112 12.7999 10.9291C12.7999 11.0471 12.7767 11.1638 12.7316 11.2727C12.6864 11.3817 12.6203 11.4807 12.5369 11.564L5.49037 18.6106C5.40682 18.6934 5.30772 18.759 5.19877 18.8035C5.08982 18.848 4.97316 18.8706 4.85547 18.8699Z" fill="#F05A32"/>
<path d="M18.2681 0.0898475C16.4736 0.0884128 14.7031 0.502444 13.0953 1.29951C11.4875 2.09658 10.0861 3.25504 9.00081 4.68416C7.91551 6.11328 7.17579 7.77426 6.83961 9.53699C6.50342 11.2997 6.5799 13.1164 7.06303 14.8446C7.54617 16.5729 8.42285 18.1658 9.62442 19.4987C10.826 20.8315 12.3198 21.8681 13.9889 22.5272C15.658 23.1864 17.457 23.4501 19.245 23.2979C21.0331 23.1457 22.7616 22.5815 24.2952 21.6497C24.5009 21.5245 24.7065 21.3993 24.9033 21.2563C26.0386 20.4697 27.023 19.4853 27.8095 18.35C27.9453 18.1602 28.0707 17.9632 28.1851 17.7598C29.3044 15.9424 29.8958 13.8493 29.8931 11.7148C29.8931 8.63169 28.6683 5.67483 26.4882 3.49472C24.3081 1.31462 21.3512 0.0898475 18.2681 0.0898475ZM26.647 16.8477C26.5542 17.0139 26.4527 17.175 26.343 17.3306C25.675 18.2816 24.8421 19.1054 23.8839 19.7629C23.7229 19.8702 23.5709 19.9775 23.3831 20.0848C21.3183 21.3504 18.8608 21.8144 16.4767 21.3888C14.0926 20.9632 11.9475 19.6776 10.4481 17.7758C8.94864 15.874 8.19914 13.4881 8.34166 11.0705C8.48418 8.65288 9.50881 6.37159 11.2213 4.65911C12.9338 2.94663 15.2151 1.922 17.6327 1.77948C20.0503 1.63696 22.4362 2.38645 24.338 3.88587C26.2398 5.38528 27.5254 7.53039 27.951 9.91452C28.3766 12.2986 27.9126 14.7561 26.647 16.8209V16.8477Z" fill="#F05A32"/>
<path d="M13.7976 5.45703C13.0902 5.45703 12.3986 5.66681 11.8104 6.05985C11.2222 6.45289 10.7637 7.01152 10.493 7.66512C10.2223 8.31872 10.1514 9.03792 10.2894 9.73177C10.4275 10.4256 10.7681 11.063 11.2684 11.5632C11.7686 12.0635 12.406 12.4041 13.0998 12.5421C13.7937 12.6802 14.5129 12.6093 15.1665 12.3386C15.8201 12.0679 16.3787 11.6094 16.7717 11.0212C17.1648 10.433 17.3746 9.7414 17.3746 9.03395C17.3746 8.08529 16.9977 7.17549 16.3269 6.50469C15.6561 5.83388 14.7463 5.45703 13.7976 5.45703ZM13.7976 10.8224C13.4439 10.8224 13.0981 10.7175 12.804 10.521C12.5099 10.3245 12.2807 10.0452 12.1453 9.71836C12.0099 9.39156 11.9745 9.03196 12.0435 8.68504C12.1125 8.33811 12.2829 8.01944 12.533 7.76932C12.7831 7.5192 13.1018 7.34886 13.4487 7.27985C13.7956 7.21085 14.1552 7.24626 14.482 7.38163C14.8088 7.51699 15.0882 7.74622 15.2847 8.04033C15.4812 8.33444 15.5861 8.68022 15.5861 9.03395C15.5861 9.50828 15.3977 9.96318 15.0623 10.2986C14.7269 10.634 14.272 10.8224 13.7976 10.8224Z" fill="#F05A32"/>
<path d="M19.0556 15.1857C18.9379 15.1863 18.8213 15.1638 18.7123 15.1193C18.6034 15.0748 18.5043 15.0092 18.4207 14.9263L15.0584 11.564C14.89 11.3957 14.7954 11.1673 14.7954 10.9291C14.7954 10.691 14.89 10.4626 15.0584 10.2942C15.2268 10.1258 15.4552 10.0312 15.6933 10.0312C15.9314 10.0312 16.1598 10.1258 16.3282 10.2942L19.6905 13.6565C19.7743 13.7397 19.8409 13.8386 19.8863 13.9475C19.9317 14.0565 19.955 14.1734 19.955 14.2914C19.955 14.4095 19.9317 14.5264 19.8863 14.6353C19.8409 14.7443 19.7743 14.8432 19.6905 14.9263C19.607 15.0092 19.5079 15.0748 19.3989 15.1193C19.29 15.1638 19.1733 15.1863 19.0556 15.1857Z" fill="#F05A32"/>
<path d="M20.9514 12.6094C20.244 12.6094 19.5524 12.8192 18.9642 13.2122C18.376 13.6052 17.9175 14.1639 17.6468 14.8175C17.3761 15.4711 17.3052 16.1903 17.4432 16.8841C17.5813 17.578 17.9219 18.2153 18.4222 18.7156C18.9224 19.2158 19.5598 19.5565 20.2536 19.6945C20.9475 19.8325 21.6667 19.7617 22.3203 19.4909C22.9739 19.2202 23.5325 18.7617 23.9255 18.1735C24.3186 17.5853 24.5284 16.8937 24.5284 16.1863C24.5284 15.2376 24.1515 14.3278 23.4807 13.657C22.8099 12.9862 21.9001 12.6094 20.9514 12.6094ZM20.9514 17.9748C20.5977 17.9748 20.2519 17.8699 19.9578 17.6733C19.6637 17.4768 19.4345 17.1975 19.2991 16.8707C19.1637 16.5439 19.1283 16.1843 19.1973 15.8374C19.2663 15.4905 19.4367 15.1718 19.6868 14.9217C19.9369 14.6715 20.2556 14.5012 20.6025 14.4322C20.9495 14.3632 21.3091 14.3986 21.6359 14.534C21.9627 14.6693 22.242 14.8986 22.4385 15.1927C22.635 15.4868 22.7399 15.8326 22.7399 16.1863C22.7399 16.6606 22.5515 17.1155 22.2161 17.4509C21.8807 17.7863 21.4258 17.9748 20.9514 17.9748Z" fill="#F05A32"/>
<path d="M22.8467 15.1854C22.729 15.1861 22.6123 15.1635 22.5034 15.119C22.3944 15.0745 22.2953 15.0089 22.2118 14.9261C22.128 14.8429 22.0614 14.744 22.016 14.6351C21.9706 14.5261 21.9473 14.4092 21.9473 14.2912C21.9473 14.1731 21.9706 14.0562 22.016 13.9473C22.0614 13.8383 22.128 13.7394 22.2118 13.6563L31.941 3.92705C32.1094 3.75866 32.3378 3.66406 32.5759 3.66406C32.814 3.66406 33.0424 3.75866 33.2108 3.92705C33.3792 4.09543 33.4738 4.32382 33.4738 4.56195C33.4738 4.80009 33.3792 5.02847 33.2108 5.19685L23.4816 14.9261C23.398 15.0089 23.2989 15.0745 23.19 15.119C23.081 15.1635 22.9644 15.1861 22.8467 15.1854Z" fill="#F05A32"/>
<path d="M34.3639 0.0898438C33.8333 0.0898438 33.3146 0.247181 32.8734 0.541958C32.4323 0.836736 32.0884 1.25571 31.8854 1.74591C31.6823 2.23611 31.6292 2.77551 31.7327 3.2959C31.8362 3.81629 32.0917 4.2943 32.4669 4.66948C32.8421 5.04466 33.3201 5.30016 33.8405 5.40367C34.3609 5.50718 34.9003 5.45406 35.3905 5.25101C35.8807 5.04797 36.2997 4.70412 36.5944 4.26295C36.8892 3.82179 37.0465 3.30312 37.0465 2.77253C37.0465 2.06104 36.7639 1.37869 36.2608 0.875585C35.7577 0.372483 35.0753 0.0898438 34.3639 0.0898438ZM34.3639 3.66676C34.187 3.66676 34.0141 3.61432 33.867 3.51606C33.72 3.4178 33.6054 3.27814 33.5377 3.11474C33.47 2.95134 33.4523 2.77154 33.4868 2.59808C33.5213 2.42461 33.6065 2.26528 33.7315 2.14022C33.8566 2.01516 34.0159 1.92999 34.1894 1.89548C34.3629 1.86098 34.5427 1.87869 34.7061 1.94637C34.8695 2.01405 35.0091 2.12867 35.1074 2.27572C35.2056 2.42278 35.2581 2.59567 35.2581 2.77253C35.2581 3.0097 35.1639 3.23715 34.9962 3.40485C34.8285 3.57255 34.601 3.66676 34.3639 3.66676ZM35.4459 24.0462L28.1042 16.6599C28.0071 16.5618 27.8885 16.4876 27.7579 16.443C27.6272 16.3984 27.488 16.3846 27.3511 16.4028C27.2143 16.421 27.0835 16.4706 26.969 16.5478C26.8546 16.625 26.7595 16.7276 26.6914 16.8477C26.5985 17.0139 26.497 17.175 26.3873 17.3306C25.706 18.2855 24.8578 19.1095 23.8835 19.7629C23.7279 19.8726 23.5667 19.9741 23.4006 20.0669C23.2671 20.132 23.152 20.2293 23.0656 20.35C22.9792 20.4708 22.9241 20.6111 22.9055 20.7584C22.8869 20.9057 22.9052 21.0553 22.9589 21.1937C23.0125 21.3322 23.0998 21.4551 23.2128 21.5513L30.5991 28.9377C31.2419 29.5804 32.1136 29.9415 33.0225 29.9415C33.9314 29.9415 34.8032 29.5804 35.4459 28.9377C36.0886 28.295 36.4497 27.4233 36.4497 26.5143C36.4497 25.6054 36.0886 24.7337 35.4459 24.091V24.0462ZM34.1761 27.6232C34.0254 27.7762 33.8459 27.8977 33.6478 27.9807C33.4498 28.0636 33.2372 28.1064 33.0225 28.1064C32.8078 28.1064 32.5952 28.0636 32.3972 27.9807C32.1991 27.8977 32.0196 27.7762 31.8689 27.6232L25.2516 21.0059C26.1284 20.3526 26.9055 19.5755 27.5588 18.6988L34.1761 25.3161C34.3291 25.4667 34.4506 25.6462 34.5336 25.8443C34.6165 26.0423 34.6593 26.2549 34.6593 26.4696C34.6593 26.6843 34.6165 26.8969 34.5336 27.0949C34.4506 27.293 34.3291 27.4725 34.1761 27.6232Z" fill="#F05A32"/>
</svg>
