<svg width="50" height="57" viewBox="0 0 50 57" fill="none" xmlns="http://www.w3.org/2000/svg">
    <path d="M32.2001 14.6722C32.6001 14.6722 33.0001 14.4474 33.2001 14.0539C33.3001 13.829 33.3501 13.6041 33.3501 13.4355C33.3501 13.2668 33.3001 12.9858 33.2001 12.8171L30.9001 8.31989C30.8501 8.26367 30.8501 8.20745 30.9001 8.15124L33.2001 3.654C33.4001 3.26049 33.4001 2.81077 33.2001 2.36105C33.0001 1.96754 32.6001 1.74268 32.2001 1.74268H18.9501C18.6501 1.74268 18.4501 1.96754 18.4501 2.30483V22.1489C18.3501 22.2051 18.2001 22.2051 18.1001 22.2613C18.0001 22.3175 17.9501 22.3738 17.8501 22.43H17.8001C17.7501 22.4862 17.7001 22.4862 17.6501 22.5424C17.5501 22.5986 17.5001 22.711 17.4501 22.7673C17.3501 22.8797 17.2501 23.0483 17.2001 23.217L11.4501 34.0666V34.1228L1.0501 53.6296C0.950098 53.7982 0.950098 54.0231 1.0501 54.1917C1.1501 54.3604 1.3001 54.4728 1.5001 54.4728H36.2001C36.4001 54.4728 36.5501 54.3604 36.6501 54.1917C36.7501 54.0231 36.7501 53.7982 36.6501 53.6296L26.3001 34.1228L20.5501 23.2732C20.5001 23.1608 20.4501 23.1046 20.4001 22.9921C20.3501 22.9359 20.3001 22.8235 20.2501 22.7673C20.1501 22.6548 20.0001 22.4862 19.8501 22.43C19.7001 22.3175 19.6001 22.2613 19.4501 22.2051V14.6722H32.2001ZM19.6501 23.7791L24.9501 33.7855H12.7501L18.1001 23.7229C18.1501 23.5543 18.2501 23.4418 18.4001 23.3294C18.5001 23.2732 18.6001 23.217 18.7501 23.217C18.8001 23.2732 18.9001 23.2732 18.9501 23.2732C19.0001 23.2732 19.0501 23.2732 19.1001 23.217C19.2001 23.217 19.2501 23.2732 19.3001 23.3294C19.4501 23.4981 19.5501 23.6105 19.6501 23.7791Z" fill="#F05A32"/>
    <path d="M40.4998 38.3953L35.8998 30.0754L35.6498 29.6257L35.4998 29.457C35.3998 29.3446 35.2498 29.2884 35.0998 29.176C34.8998 29.0635 34.6498 29.0073 34.4498 29.0073H34.1998C34.1498 29.0073 34.0498 29.0073 33.9998 29.0635C33.7998 29.1198 33.5998 29.2322 33.3998 29.4008L33.2498 29.5695C33.1498 29.6819 33.0498 29.7943 32.9998 29.963L29.0498 37.1024L37.4998 53.0113C37.7498 53.4611 37.7498 53.967 37.5998 54.4167H48.4998C48.6998 54.4167 48.8498 54.3043 48.9498 54.1356C49.0498 53.967 49.0498 53.7421 48.9498 53.5735L40.4998 38.3953ZM29.6998 38.058L33.8498 30.5251C33.9498 30.3003 34.1498 30.1316 34.3998 30.1316C34.6498 30.1316 34.8498 30.3003 34.9998 30.5814L39.1498 38.058H29.6998Z" fill="#F05A32"/>
</svg>
