<svg width="50" height="50" viewBox="0 0 50 50" fill="none" xmlns="http://www.w3.org/2000/svg">
    <path d="M47.2783 24.2109C34.9971 11.9297 15.0049 11.9297 2.71582 24.2109L1.48145 25.4609L2.72363 26.6953C8.86426 32.8359 16.9346 35.9062 24.9971 35.9062C33.0674 35.9062 41.1377 32.8359 47.2783 26.6953L48.5127 25.4609L47.2783 24.2109ZM24.9971 34.1172C20.2236 34.1172 16.333 30.2344 16.333 25.4531C16.333 20.6719 20.2236 16.7891 24.9971 16.7891C29.7783 16.7891 33.6689 20.6719 33.6689 25.4531C33.6689 30.2344 29.7783 34.1172 24.9971 34.1172ZM19.2408 11.668L17.84 9.78828L19.0932 8.85469L20.4932 10.7344L19.2408 11.668ZM16.44 7.90937L15.04 6.02969L16.2924 5.09609L17.6924 6.97578L16.44 7.90937ZM25.7814 10.6406H24.2189V8.6875H25.7814V10.6406ZM25.7814 6.34375H24.2189V4H25.7814V6.34375ZM30.7604 11.668L29.5072 10.7344L30.908 8.85469L32.1604 9.78828L30.7604 11.668ZM33.5611 7.90937L32.308 6.97578L33.708 5.09609L34.9611 6.02969L33.5611 7.90937ZM33.7088 45.8102L32.308 43.9305L33.5611 42.9969L34.9611 44.8766L33.7088 45.8102ZM30.908 42.0523L29.5072 40.1719L30.7604 39.2383L32.1604 41.118L30.908 42.0516V42.0523ZM25.7814 46.9047H24.2189V44.5609H25.7814V46.9047ZM25.7814 42.2172H24.2189V40.2641H25.7814V42.2172ZM16.2924 45.8094L15.04 44.8758L16.44 42.9961L17.6924 43.9297L16.2924 45.8094ZM19.0932 42.0516L17.8408 41.1172L19.2408 39.2375L20.4932 40.1711L19.0932 42.0516Z" fill="#F05A32"/>
    <path d="M2.34375 10.832H0V0H10.2445V2.34375H2.34375V10.832ZM10.2445 50H0V40.0055H2.34375V47.6562H10.2445V50ZM50 9.99453H47.6562V2.34375H39.7555V0H50V9.99453ZM50 50H39.7555V47.6562H47.6562V40.0055H50V50ZM24.9969 17.8984C21.0828 17.8984 17.8953 21.0859 17.8953 25C17.8953 28.9141 21.0828 32.1016 24.9969 32.1016C28.9187 32.1016 32.1063 28.9141 32.1063 25C32.1063 21.0859 28.9187 17.8984 24.9969 17.8984ZM24.9969 27.875C24.246 27.8575 23.5317 27.5469 23.0069 27.0096C22.482 26.4724 22.1881 25.7511 22.1881 25C22.1881 24.2489 22.482 23.5276 23.0069 22.9904C23.5317 22.4531 24.246 22.1425 24.9969 22.125C26.5828 22.125 27.8719 23.4141 27.8719 25C27.8719 26.5859 26.5828 27.875 24.9969 27.875Z" fill="#F05A32"/>
</svg>
