<svg width="90" height="98" viewBox="0 0 90 98" fill="none" xmlns="http://www.w3.org/2000/svg">
<rect opacity="0.5" x="6.08252" y="36" width="62.8517" height="62" rx="31" fill="#D9D9D9"/>
<rect opacity="0.5" x="50.687" width="38.522" height="38" rx="19" fill="#D9D9D9"/>
<path d="M54.4681 18.9851C54.4053 18.9855 54.3426 18.9905 54.2805 19.0001H15.2061V89.0001H65.8929V30.4451C65.9146 30.3126 65.9146 30.1776 65.8929 30.0451V29.7326L65.68 29.5276C65.602 29.4193 65.5071 29.3239 65.3987 29.2451L55.497 19.4751C55.4304 19.3898 55.3529 19.3133 55.2664 19.2476L55.0129 18.9976H54.686C54.6139 18.9864 54.541 18.9814 54.4681 18.9826V18.9851ZM17.7404 21.5001H53.2212V31.5001H63.3585V86.5001H17.7404V21.5001ZM55.7555 23.2676L61.5667 29.0001H55.7555V23.2676ZM30.4121 26.5001V29.0001H48.1525V26.5001H30.4121ZM22.8091 34.0001V36.5001H58.2898V34.0001H22.8091ZM22.8091 39.0001V41.5001H58.2898V39.0001H22.8091ZM22.8091 44.0001V46.5001H58.2898V44.0001H22.8091ZM22.8091 49.0001V51.5001H58.2898V49.0001H22.8091ZM22.8091 54.0001V56.5001H58.2898V54.0001H22.8091ZM22.8091 59.0001V61.5001H40.5495V59.0001H22.8091ZM39.4546 63.9751C39.2613 63.9603 39.0668 63.972 38.8768 64.0101V64.0501C37.972 64.2151 37.8048 64.6751 37.5741 65.0051C37.3461 65.3351 37.161 65.6776 36.9862 66.0051C36.8088 66.3376 36.6466 66.6551 36.5199 66.8651C36.5097 66.8901 36.5021 66.8951 36.4894 66.9051H36.4388C36.1879 66.9051 35.828 66.9051 35.4453 66.8801C35.0651 66.8801 34.6647 66.8551 34.2592 66.9051C33.8537 66.9426 33.3519 66.8626 32.769 67.5551C32.1861 68.2476 32.361 68.7126 32.4016 69.1076C32.4421 69.5026 32.5308 69.8826 32.6144 70.2451C32.6981 70.6076 32.7792 70.9501 32.8223 71.1926C32.8273 71.2176 32.8223 71.2176 32.8223 71.2376C32.8096 71.2626 32.8096 71.2651 32.7918 71.2751C32.6043 71.4376 32.3179 71.6526 32.0214 71.8851C31.7224 72.1176 31.4132 72.3601 31.1242 72.6426C30.8379 72.9251 30.402 73.1826 30.4121 74.0776C30.4222 74.9726 30.8632 75.2176 31.1547 75.4951C31.4461 75.7701 31.7629 76.0101 32.067 76.2376C32.3686 76.4626 32.6601 76.6726 32.8527 76.8326C32.8679 76.8576 32.8679 76.8576 32.8831 76.8651V76.9101C32.8284 77.2305 32.7667 77.5498 32.6981 77.8676C32.622 78.2326 32.5435 78.6076 32.5105 79.0051C32.4776 79.4026 32.3129 79.8676 32.911 80.5476C33.5091 81.2276 34.0083 81.1426 34.4164 81.1726C34.8219 81.2026 35.2172 81.1726 35.5999 81.1726C35.98 81.1476 36.3425 81.1376 36.5934 81.1376H36.644C36.6567 81.1626 36.6618 81.1626 36.6745 81.1726C36.8062 81.3826 36.976 81.6901 37.1585 82.0176C37.341 82.3426 37.5361 82.6851 37.7718 83.0101C38.0101 83.3351 38.1875 83.7951 39.0947 83.9426C40.002 84.0901 40.3264 83.7051 40.6584 83.4726C40.9747 83.2431 41.2769 82.9951 41.5632 82.7301C41.8445 82.4801 42.1081 82.2326 42.3007 82.0751C42.3184 82.0501 42.326 82.0751 42.3412 82.0501H42.3919C42.6302 82.1301 42.9672 82.2651 43.322 82.4001C43.6768 82.5326 44.0443 82.6751 44.4397 82.7751C44.835 82.8751 45.2836 83.1126 46.0743 82.6576C46.865 82.2001 46.86 81.7076 46.9613 81.3251C47.0602 80.9376 47.1134 80.5551 47.1641 80.1876C47.2122 79.8176 47.2553 79.4676 47.3009 79.2251C47.306 79.2001 47.3111 79.2001 47.3162 79.1801C47.3339 79.1801 47.3364 79.1551 47.3567 79.1551C47.5899 79.0651 47.9345 78.9576 48.2944 78.8401C48.6568 78.7201 49.037 78.5901 49.4044 78.4201C49.7745 78.2501 50.2661 78.1551 50.5728 77.3101C50.8769 76.4651 50.5525 76.0926 50.3751 75.7351C50.198 75.3903 50 75.0563 49.7821 74.7351C49.5742 74.4251 49.3715 74.1251 49.2473 73.9101C49.2346 73.8851 49.2397 73.8851 49.2321 73.8676C49.2397 73.8426 49.2372 73.8476 49.2473 73.8301C49.3664 73.6151 49.5616 73.3126 49.7618 72.9951C49.9595 72.6776 50.1673 72.3451 50.3345 71.9826C50.5044 71.6226 50.8211 71.2401 50.4993 70.4026C50.1749 69.5626 49.6782 69.4801 49.3081 69.3176C48.9445 69.1662 48.5722 69.0359 48.193 68.9276C47.8281 68.8151 47.4784 68.7076 47.2427 68.6251C47.2224 68.6251 47.2173 68.6001 47.2021 68.6001C47.197 68.5751 47.1869 68.5751 47.1818 68.5551C47.1311 68.3151 47.0805 67.9601 47.0247 67.5951C46.9721 67.2126 46.8959 66.8335 46.7966 66.4601C46.6876 66.0776 46.6826 65.5851 45.8817 65.1476C45.0783 64.7076 44.6399 64.9551 44.2471 65.0651C43.8542 65.1726 43.4918 65.3226 43.137 65.4651C42.7847 65.6076 42.4502 65.7476 42.212 65.8301H42.1689C42.1512 65.8301 42.141 65.8276 42.1233 65.8026C41.9256 65.6501 41.657 65.4126 41.3706 65.1676C41.0842 64.9226 40.7877 64.6676 40.4506 64.4401C40.1972 64.2701 39.9438 64.0226 39.4546 63.9751ZM39.4166 66.8626C39.5129 66.9426 39.5788 66.9826 39.6827 67.0726C39.9514 67.3026 40.2403 67.5601 40.5343 67.7901C40.8308 68.0201 41.0158 68.2776 41.7381 68.3951C42.4578 68.5101 42.7189 68.3201 43.0737 68.1951C43.4285 68.0701 43.7884 67.9201 44.1178 67.7851C44.2471 67.7326 44.3231 67.7101 44.4397 67.6676C44.4625 67.7876 44.4828 67.8651 44.5056 68.0001C44.5563 68.3451 44.6069 68.7176 44.683 69.0776C44.759 69.4401 44.7286 69.7601 45.2025 70.3001C45.6764 70.8376 46.0008 70.8551 46.3556 70.9826C46.7104 71.1101 47.083 71.2126 47.4251 71.3201C47.5594 71.3601 47.6329 71.3926 47.7521 71.4326C47.6887 71.5401 47.6558 71.6126 47.5823 71.7301C47.3972 72.0301 47.1894 72.3426 47.0095 72.6676C46.827 72.9926 46.5964 73.2176 46.604 73.9276C46.6116 74.6376 46.8448 74.8576 47.0348 75.1776C47.2224 75.4976 47.4353 75.8101 47.6279 76.1026C47.7039 76.2201 47.7419 76.2876 47.8053 76.3926C47.6887 76.4351 47.6177 76.4676 47.4834 76.5101C47.1438 76.6226 46.7738 76.7351 46.419 76.8701C46.0667 77.0051 45.7449 77.0301 45.2811 77.5801C44.8198 78.1301 44.8528 78.4476 44.7869 78.8101C44.7185 79.1726 44.6804 79.5476 44.6348 79.8926L44.5791 80.2251C44.4599 80.1826 44.3839 80.1626 44.2496 80.1126C43.9201 79.9876 43.5603 79.8401 43.2029 79.7226C42.843 79.6051 42.5769 79.4201 41.8597 79.5526C41.145 79.6826 40.9651 79.9526 40.6736 80.1876C40.3822 80.4226 40.1009 80.6826 39.8373 80.9201C39.7334 81.0126 39.67 81.0551 39.5737 81.1351C39.5104 81.0301 39.4673 80.9651 39.4014 80.8451C39.2291 80.5376 39.0491 80.2076 38.8515 79.8951C38.6538 79.5801 38.5727 79.2701 37.9366 78.9201C37.3004 78.5726 36.9887 78.6601 36.6086 78.6576C36.2309 78.6576 35.8432 78.6826 35.4858 78.6976H35.1386C35.1615 78.5776 35.1716 78.4976 35.1995 78.3651C35.2704 78.0226 35.3515 77.6551 35.4073 77.2901C35.463 76.9276 35.605 76.6401 35.3465 75.9726C35.0905 75.3076 34.7889 75.1801 34.5 74.9426C34.2111 74.7051 33.8993 74.4851 33.613 74.2726C33.504 74.1901 33.4457 74.1301 33.3469 74.0526C33.4432 73.9776 33.4989 73.9251 33.6104 73.8401C33.8892 73.6226 34.1984 73.3901 34.4797 73.1451C34.7636 72.9001 35.0626 72.7701 35.3034 72.1001C35.5441 71.4301 35.4022 71.1451 35.3363 70.7826C35.273 70.4176 35.1843 70.0551 35.1057 69.7126C35.0728 69.5801 35.0651 69.5001 35.0398 69.3801H35.3819C35.7393 69.3801 36.127 69.4051 36.5047 69.4051C36.8848 69.4051 37.1991 69.4801 37.8276 69.1176C38.4561 68.7551 38.5321 68.4426 38.7222 68.1251C38.9123 67.8076 39.0821 67.4751 39.2468 67.1651C39.3127 67.0401 39.3558 66.9776 39.4166 66.8701V66.8626ZM43.137 70.8376L39.4115 74.4701L39.3811 74.4401L38.4612 73.5401L37.5387 72.6476L35.7646 74.4226L36.677 75.3176L37.5995 76.2176L39.4115 77.9801L44.9212 72.6076L43.137 70.8351V70.8376Z" fill="#00529C"/>
</svg>
