<svg width="90" height="98" viewBox="0 0 90 98" fill="none" xmlns="http://www.w3.org/2000/svg">
<rect opacity="0.5" y="36" width="62.8517" height="62" rx="31" fill="#D9D9D9"/>
<rect opacity="0.5" x="44.6045" width="38.522" height="38" rx="19" fill="#D9D9D9"/>
<g clip-path="url(#clip0_267_1451)">
<path d="M54.2664 52.25H66.6213C67.8252 52.25 68.8072 51.2969 68.8072 50.0938C68.8072 48.9063 67.8252 47.9375 66.6213 47.9375H54.2664C53.0626 47.9375 52.0806 48.9063 52.0806 50.0938C52.0806 51.2813 53.0626 52.25 54.2664 52.25Z" fill="#00529C"/>
<path d="M39.6257 39.2125L39.8028 39.3969H40.0584H77.0914C77.6601 39.3969 78.1923 39.6146 78.6057 40.0084C78.9947 40.3938 79.2158 40.9254 79.2159 41.4841C79.2159 41.4842 79.2159 41.4843 79.2159 41.4844L79.2001 82.5874C79.2001 82.5883 79.2 82.5892 79.2 82.59C79.1863 83.7582 78.2365 84.6969 77.0598 84.6969H10.8343C10.2656 84.6969 9.73331 84.4791 9.31989 84.0852C8.93097 83.6998 8.70991 83.1683 8.70986 82.6096C8.70986 82.6095 8.70986 82.6094 8.70986 82.6094L8.7257 34.2189V34.2187C8.7257 33.6594 8.94702 33.1299 9.34827 32.7461C9.75511 32.3569 10.2718 32.1457 10.8705 32.1313L32.0708 32.2875V32.2875H32.0752C32.6466 32.2875 33.1915 32.5263 33.6093 32.9497L39.6257 39.2125ZM74.3354 80.5219H74.9351L74.9353 79.9221L74.9512 44.1878L74.9515 43.5875H74.3512H38.8704C38.2869 43.5875 37.7317 43.3555 37.3242 42.9292L37.3231 42.9281L31.2882 36.6468L31.1129 36.4643L30.8599 36.4625L13.5472 36.3375L12.9426 36.3332L12.9429 36.9377L12.9587 79.9221L12.9589 80.5219H13.5587H74.3354Z" fill="#00529C" stroke="white" stroke-width="1.2"/>
<path d="M49.0195 30.2594L49.1966 30.4437H49.4522H86.4853C87.0608 30.4437 87.605 30.6661 87.9964 31.0521C88.3857 31.4362 88.6115 31.9704 88.6255 32.5382L88.6097 73.656V73.6562C88.6097 74.8016 87.6664 75.7438 86.4853 75.7438H82.1433V71.5687H83.7609H84.3606L84.3609 70.969L84.3767 35.2346L84.377 34.6344H83.7767H48.2959C47.721 34.6344 47.1612 34.3929 46.7461 33.9722L40.7137 27.6937L40.5384 27.5112L40.2854 27.5094L22.9727 27.3844L22.3684 27.38V27.9844V28.8688H18.1195V25.2656C18.1195 24.7062 18.3408 24.1768 18.7421 23.793L18.7421 23.793L18.7487 23.7865C19.1414 23.3992 19.6861 23.1781 20.2439 23.1781H20.2576H20.2598L41.4603 23.3343C42.0544 23.3478 42.6104 23.5849 42.9991 23.9923L43.0005 23.9938L49.0195 30.2594Z" fill="#00529C" stroke="white" stroke-width="1.2"/>
</g>
<defs>
<clipPath id="clip0_267_1451">
<rect width="81.0989" height="80" fill="white" transform="translate(8.10986 14)"/>
</clipPath>
</defs>
</svg>
