<svg width="84" height="98" viewBox="0 0 84 98" fill="none" xmlns="http://www.w3.org/2000/svg">
<rect opacity="0.5" y="36" width="62.8517" height="62" rx="31" fill="#D9D9D9"/>
<rect opacity="0.5" x="44.6045" width="38.522" height="38" rx="19" fill="#D9D9D9"/>
<path d="M25.8249 27.5754H50.4333C51.1176 27.5754 51.6625 27.0379 51.6625 26.3629V20.6754C51.6625 20.0004 51.1176 19.4629 50.4333 19.4629H25.8249C25.1406 19.4629 24.5957 20.0004 24.5957 20.6754V26.3629C24.5957 27.0379 25.1406 27.5754 25.8249 27.5754ZM27.054 21.8879H49.2042V25.1504H27.054V21.8879ZM25.8249 33.7879H50.4333C51.1176 33.7879 51.6625 33.2504 51.6625 32.5754C51.6625 31.9004 51.1176 31.3629 50.4333 31.3629H25.8249C25.4989 31.3629 25.1862 31.4906 24.9557 31.718C24.7252 31.9454 24.5957 32.2538 24.5957 32.5754C24.5957 32.897 24.7252 33.2054 24.9557 33.4328C25.1862 33.6601 25.4989 33.7879 25.8249 33.7879ZM41.3984 37.2879C41.3984 36.6129 40.8535 36.0754 40.1692 36.0754H25.8249C25.1406 36.0754 24.5957 36.6129 24.5957 37.2879C24.5957 37.9629 25.1406 38.5004 25.8249 38.5004H40.1692C40.8535 38.5004 41.3984 37.9504 41.3984 37.2879Z" fill="#00529C"/>
<path d="M79.1982 74.05L76.2077 66.85C75.8149 65.8875 75.0039 65.15 73.9648 64.8L70.214 63.7V25.9875C70.214 25.9625 70.2013 25.9375 70.2013 25.9125C70.1887 25.8 70.176 25.7 70.138 25.5875L70.1 25.475C70.0366 25.35 69.9606 25.225 69.8592 25.125L58.9362 14.3625C58.9108 14.3375 58.8982 14.325 58.8728 14.3125C58.7858 14.2359 58.6876 14.1726 58.5814 14.125C58.5307 14.1 58.48 14.0875 58.4293 14.075C58.339 14.0463 58.2453 14.0295 58.1505 14.025C58.1125 14.0125 58.0872 14 58.0492 14H22.5431C20.5663 14 18.957 15.6375 18.957 17.6625V44.6875L10.4416 35.6875C9.9854 35.2125 9.37716 34.9375 8.71823 34.9125C8.02129 34.875 7.42572 35.125 6.94419 35.5625L2.35704 39.775C1.8778 40.2193 1.59567 40.8322 1.57194 41.4805C1.54821 42.1289 1.78481 42.7603 2.23032 43.2375L5.53763 46.7375L18.9443 60.925V79.3C18.9443 81.325 20.5536 82.9625 22.5304 82.9625H60.3174C60.3808 83.275 60.4314 83.6 60.5201 83.9L60.8243 85.025H59.9499C59.2657 85.025 58.7208 85.5625 58.7208 86.2375V92.7875C58.7208 93.4625 59.2657 94 59.9499 94H77.044C77.7283 94 78.2732 93.4625 78.2732 92.7875V86.2375C78.2732 85.5625 77.7283 85.025 77.044 85.025H76.2204L79.2363 77.2625C79.6418 76.225 79.6291 75.075 79.1982 74.05ZM59.2783 18.1375L66.007 24.775H60.4061C59.7852 24.775 59.2783 24.225 59.2783 23.5375V18.1375ZM12.7985 41.7125L31.6794 61.6875L31.7174 61.725L32.2116 62.25L30.805 63.55L11.392 43.0125L12.7985 41.7125ZM33.4154 64.475L35.4935 70.3L29.7533 67.85L33.4154 64.475ZM4.0297 41.5375L8.6422 37.325L11.1132 39.9375L6.51335 44.175L4.0297 41.5375ZM8.19869 45.95L9.59258 44.6625L29.0056 65.2L27.5991 66.5L8.19869 45.95ZM60.4948 76.1C60.0766 77.55 59.9373 79.0375 59.9879 80.5375H22.5431C21.9095 80.5375 21.4153 79.9875 21.4153 79.2875V63.525L26.636 69.05C26.7501 69.175 26.8895 69.275 27.0415 69.3375L37.0775 73.6125C37.2961 73.7051 37.5373 73.7328 37.7716 73.6922C38.0059 73.6516 38.2231 73.5444 38.3966 73.3839C38.5701 73.2234 38.6923 73.0164 38.7484 72.7884C38.8044 72.5603 38.7918 72.3211 38.7122 72.1L37.0902 67.5375H56.0597C56.744 67.5375 57.2889 67 57.2889 66.325C57.2889 65.65 56.744 65.1125 56.0597 65.1125H36.2538L35.1641 62.075H56.0851C56.7693 62.075 57.3142 61.5375 57.3142 60.8625C57.3142 60.1875 56.7693 59.65 56.0851 59.65H33.1113L21.4153 47.275V17.6625C21.4153 16.9875 21.9221 16.425 22.5431 16.425H56.82V23.55C56.82 25.5625 58.4293 27.2125 60.4061 27.2125H67.743V57.75C67.2235 57.55 66.6533 57.45 66.083 57.4875C64.0429 57.6125 62.4589 59.35 62.4589 61.4375L62.4716 65.8375C62.4463 68.1875 62.0914 70.5625 61.4198 72.8875L60.4948 76.1ZM75.8149 91.575H61.1918V87.45H75.8149V91.575ZM76.9427 76.3875L73.5847 85.025H63.384L62.8898 83.25C62.2688 81.125 62.2562 78.8875 62.8644 76.7625L63.7895 73.5125C64.5117 70.975 64.8919 68.4 64.9299 65.825L64.9172 61.4125C64.9172 60.6125 65.5128 59.9375 66.2351 59.8875C66.6406 59.8625 67.0461 60 67.3375 60.2875C67.5276 60.475 67.743 60.7875 67.743 61.25V70.1875C67.743 70.8625 68.2879 71.4 68.9722 71.4C69.6564 71.4 70.2013 70.8625 70.2013 70.1875V66.225L73.2172 67.1C73.534 67.2125 73.8001 67.45 73.9268 67.75L76.9173 74.95C77.1074 75.425 77.1201 75.925 76.9427 76.3875Z" fill="#00529C"/>
<path d="M58.6831 36.5508C56.719 36.5508 55.1223 38.1258 55.1223 40.0633C55.1223 40.9508 55.4645 41.7508 56.0094 42.3633L53.6524 46.6133C53.4877 46.5883 53.3103 46.5633 53.1329 46.5633C52.1445 46.5633 51.2575 46.9633 50.6112 47.5883L46.5563 45.7508C46.5689 45.6633 46.5816 45.5633 46.5816 45.4758C46.5816 43.5383 44.985 41.9633 43.0209 41.9633C41.0568 41.9633 39.4601 43.5383 39.4601 45.4758C39.4601 46.0008 39.5868 46.4883 39.7896 46.9383L37.7875 48.9008C37.3205 48.6805 36.8098 48.5652 36.2922 48.5633C34.3281 48.5633 32.7314 50.1383 32.7314 52.0758C32.7314 54.0133 34.3281 55.5883 36.2922 55.5883C38.2563 55.5883 39.8529 54.0133 39.8529 52.0758C39.8529 51.5508 39.7262 51.0633 39.5235 50.6133L41.5256 48.6508C41.9818 48.8633 42.476 48.9883 43.0209 48.9883C43.9966 48.9883 44.8963 48.6008 45.5425 47.9633L49.5975 49.8008C49.5848 49.8883 49.5721 49.9883 49.5721 50.0758C49.5721 52.0133 51.1688 53.5883 53.1329 53.5883C55.097 53.5883 56.6936 52.0133 56.6936 50.0758C56.6899 49.2285 56.3748 48.4113 55.8066 47.7758L58.1636 43.5258C58.3283 43.5508 58.5057 43.5758 58.6831 43.5758C60.6472 43.5758 62.2438 42.0008 62.2438 40.0633C62.2438 38.1258 60.6472 36.5508 58.6831 36.5508ZM36.3175 53.1758C36.0252 53.1758 35.7447 53.0612 35.538 52.8573C35.3312 52.6533 35.2151 52.3767 35.2151 52.0883C35.2151 51.7999 35.3312 51.5232 35.538 51.3193C35.7447 51.1154 36.0252 51.0008 36.3175 51.0008C36.6217 51.0008 36.8878 51.1258 37.0905 51.3133H37.1032C37.3059 51.5133 37.42 51.7758 37.42 52.0758C37.42 52.6883 36.9258 53.1758 36.3175 53.1758ZM43.0462 46.5633C42.7421 46.5633 42.476 46.4383 42.2732 46.2508C42.2732 46.2508 42.2606 46.2508 42.2606 46.2383C42.082 46.0592 41.9718 45.8246 41.9487 45.5744C41.9256 45.3242 41.9911 45.0738 42.1339 44.8658C42.2767 44.6578 42.4882 44.5051 42.7323 44.4334C42.9764 44.3618 43.2381 44.3757 43.473 44.4729C43.7078 44.57 43.9013 44.7444 44.0206 44.9664C44.1399 45.1883 44.1776 45.4442 44.1274 45.6905C44.0771 45.9368 43.9419 46.1583 43.7448 46.3174C43.5477 46.4765 43.3009 46.5634 43.0462 46.5633ZM53.1456 51.1758C52.9635 51.1756 52.7844 51.131 52.6241 51.0459C52.4638 50.9608 52.3274 50.8378 52.227 50.6881C52.1266 50.5383 52.0653 50.3663 52.0487 50.1875C52.0321 50.0087 52.0607 49.8286 52.1318 49.6633C52.1445 49.6508 52.1445 49.6383 52.1572 49.6258C52.3346 49.2508 52.7147 48.9883 53.1582 48.9883C53.7665 48.9883 54.2607 49.4758 54.2607 50.0758C54.248 50.6883 53.7538 51.1758 53.1456 51.1758ZM58.6831 41.1508C58.5382 41.1507 58.3948 41.1225 58.261 41.0677C58.1272 41.013 58.0057 40.9327 57.9033 40.8316C57.8009 40.7305 57.7197 40.6105 57.6644 40.4785C57.609 40.3464 57.5806 40.2049 57.5807 40.062C57.5807 39.9191 57.6094 39.7777 57.6649 39.6457C57.7204 39.5137 57.8017 39.3938 57.9042 39.2928C58.0067 39.1918 58.1283 39.1117 58.2622 39.0571C58.396 39.0025 58.5395 38.9744 58.6844 38.9745C58.9769 38.9747 59.2574 39.0895 59.4642 39.2937C59.6709 39.4979 59.787 39.7747 59.7868 40.0633C59.7866 40.3519 59.6703 40.6286 59.4633 40.8325C59.2563 41.0365 58.9756 41.1509 58.6831 41.1508Z" fill="#00529C"/>
</svg>
