<svg width="93" height="81" viewBox="0 0 93 81" fill="white" xmlns="http://www.w3.org/2000/svg">
<path d="M90.1428 37.615C88.8176 36.3317 83.8364 32.8065 75.3804 41.3268L60.2354 56.5876C59.3339 57.4959 58.3304 58.2052 57.2087 58.7226C57.5373 57.9326 57.7189 57.0668 57.7189 56.1593C57.7189 52.5994 54.8117 49.6604 51.1006 49.4683C51.0357 49.4651 50.9708 49.4662 50.9059 49.4714C45.4801 49.9254 39.8859 49.4474 35.3909 49.064C33.8353 48.9313 32.3662 48.8058 31.1297 48.7418C26.214 48.4885 22.6002 51.4126 19.7131 54.308L14.0694 59.9683H1.51947C0.722947 59.9683 0.0771484 60.614 0.0771484 61.4106V79.2636C0.0771484 79.6462 0.229133 80.0129 0.499568 80.2835C0.770002 80.5539 1.13689 80.7059 1.51947 80.7059L53.203 80.7056C57.3096 80.7056 60.793 79.223 63.5565 76.2991L90.7503 47.5196C93.1561 44.9737 92.8666 40.2528 90.1428 37.615ZM88.6536 45.5386L61.4601 74.3179C59.2631 76.6425 56.4852 77.8211 53.2032 77.8211L2.96179 77.8215V62.8531H14.6684C15.0517 62.8531 15.4191 62.7005 15.6897 62.429L21.7561 56.345C24.3169 53.7767 27.2099 51.4303 30.9806 51.6228C32.1689 51.6845 33.5485 51.8022 35.1459 51.9385C39.7207 52.3288 45.4074 52.8142 51.0419 52.355C53.2104 52.5089 54.8344 54.1303 54.8344 56.1596C54.8344 57.1894 54.3826 58.2142 53.6261 58.93C52.8547 59.6598 51.9741 59.8628 50.9544 59.9684L31.5049 59.9686C30.7084 59.9686 30.0626 60.6144 30.0626 61.4109C30.0626 62.2074 30.7084 62.8532 31.5049 62.8532C31.5049 62.8532 51.0226 62.8531 51.0262 62.8532C51.9395 62.8532 52.872 62.6699 53.7812 62.5758C57.2128 62.2206 59.9936 60.9268 62.2829 58.6202L77.428 43.3594C81.8776 38.8759 85.8805 37.5036 88.1361 39.6878C89.7295 41.2305 89.9859 44.1287 88.6536 45.5386ZM8.0099 38.929C8.80642 38.929 9.45222 38.2832 9.45222 37.4866V24.7367C9.45222 22.2283 12.0973 21.0218 14.3163 20.4514C19.3528 19.1562 24.5578 19.1573 29.7866 20.4545C31.5987 20.9039 34.6387 22.058 34.6387 24.7367V37.4866C34.6387 38.2832 35.2845 38.929 36.081 38.929C36.8776 38.929 37.5234 38.2832 37.5234 37.4866V24.7367C37.5234 21.346 34.9566 18.7646 30.4811 17.6546C28.9306 17.27 27.3817 16.9938 25.8371 16.8187C28.202 15.1475 29.8039 11.9666 29.8039 8.32277C29.8039 3.37904 26.8311 0.307797 22.0455 0.307797C17.2599 0.307797 14.2871 3.37886 14.2871 8.32259C14.2871 11.9585 15.8821 15.1336 18.2386 16.8076C16.6806 16.9823 15.1323 17.263 13.598 17.6575C9.06442 18.823 6.56758 21.337 6.56758 24.7365V37.4865C6.56758 38.2832 7.21338 38.929 8.0099 38.929ZM22.0455 3.19244C23.8657 3.19244 26.9192 3.85897 26.9192 8.32277C26.9192 12.1047 24.7329 15.1815 22.0455 15.1815C19.3581 15.1815 17.1717 12.1045 17.1717 8.32259C17.1717 3.85897 20.2253 3.19244 22.0455 3.19244ZM14.3877 26.2252C15.1842 26.2252 15.83 26.871 15.83 27.6675V37.4865C15.83 38.283 15.1842 38.9288 14.3877 38.9288C13.5911 38.9288 12.9453 38.283 12.9453 37.4865V27.6675C12.9453 26.871 13.5911 26.2252 14.3877 26.2252ZM29.7031 26.2252C30.4996 26.2252 31.1454 26.871 31.1454 27.6675V37.4865C31.1454 38.283 30.4996 38.9288 29.7031 38.9288C28.9066 38.9288 28.2608 38.283 28.2608 37.4865V27.6675C28.2608 26.871 28.9064 26.2252 29.7031 26.2252ZM45.5419 38.929C46.3384 38.929 46.9842 38.2832 46.9842 37.4866V24.7367C46.9842 22.2283 49.6293 21.0218 51.8485 20.4514C56.8849 19.1562 62.0897 19.1573 67.3186 20.4545C69.1307 20.9039 72.1707 22.058 72.1707 24.7367V37.4866C72.1707 38.2832 72.8165 38.929 73.6131 38.929C74.4096 38.929 75.0554 38.2832 75.0554 37.4866V24.7367C75.0554 21.346 72.4886 18.7646 68.0131 17.6546C66.4626 17.2698 64.9137 16.9938 63.3692 16.8186C65.734 15.1473 67.3357 11.9664 67.3357 8.32259C67.3357 3.37886 64.3629 0.307617 59.5773 0.307617C54.7917 0.307617 51.8189 3.37868 51.8189 8.32259C51.8189 11.9585 53.4139 15.1334 55.7703 16.8076C54.2122 16.9823 52.6639 17.263 51.1298 17.6575C46.5963 18.8228 44.0992 21.337 44.0992 24.7365V37.4865C44.0996 38.2832 44.7454 38.929 45.5419 38.929ZM59.5775 3.19244C61.3977 3.19244 64.4513 3.85897 64.4513 8.32277C64.4513 12.1047 62.2649 15.1815 59.5775 15.1815C56.8901 15.1815 54.7037 12.1047 54.7037 8.32277C54.7039 3.85897 57.7575 3.19244 59.5775 3.19244ZM51.9199 26.2252C52.7164 26.2252 53.3622 26.871 53.3622 27.6675V37.4865C53.3622 38.283 52.7164 38.9288 51.9199 38.9288C51.1233 38.9288 50.4775 38.283 50.4775 37.4865V27.6675C50.4775 26.871 51.1232 26.2252 51.9199 26.2252ZM67.2351 26.2252C68.0316 26.2252 68.6774 26.871 68.6774 27.6675V37.4865C68.6774 38.283 68.0316 38.9288 67.2351 38.9288C66.4386 38.9288 65.7928 38.283 65.7928 37.4865V27.6675C65.7928 26.871 66.4386 26.2252 67.2351 26.2252Z" />
</svg>
