<svg width="93" height="93" viewBox="0 0 93 93" fill="white" xmlns="http://www.w3.org/2000/svg">
<g clip-path="url(#clip0_311_454)">
<path d="M90.9426 52.9864V14.5017C90.9426 12.1157 89.0016 10.1747 86.6157 10.1747H41.9041V1.69414C41.9041 1.1695 41.6197 0.686326 41.1605 0.432841C40.9436 0.311687 40.7025 0.255978 40.4618 0.255978V0.251831H8.77182C8.76857 0.251831 8.76532 0.251831 8.76226 0.251831H8.73107V0.255257C8.49038 0.255257 8.24952 0.311326 8.03245 0.432841C7.57326 0.686326 7.28876 1.1695 7.28876 1.69414V10.1747H5.84645C3.46052 10.1747 1.51953 12.1157 1.51953 14.5017V63.5401C1.51953 65.926 3.46052 67.867 5.84645 67.867H40.4229C40.0868 77.224 36.6076 82.3188 35.4725 83.7324H26.0388C23.6528 83.7324 21.7118 85.6734 21.7118 88.0593C21.7118 89.2291 22.1681 90.3185 22.9724 91.1003C23.781 91.9292 24.8698 92.3863 26.0388 92.3863H66.4234C68.8093 92.3863 70.7503 90.4453 70.7503 88.0593C70.7503 85.6734 68.8093 83.7324 66.4234 83.7324H56.9896C55.8545 82.3188 52.3753 77.224 52.0392 67.867H66.462C69.1794 71.4818 73.407 73.6363 77.9618 73.6363C85.9142 73.6363 92.3849 67.1663 92.3849 59.2132C92.3849 57.0541 91.8761 54.9153 90.9426 52.9864ZM10.1734 4.29696L23.8317 12.8396C24.2993 13.1325 24.8938 13.1325 25.3612 12.8396L39.0195 4.29696V20.0976H10.1734V4.29696ZM5.84645 13.0593H7.28876V21.5399C7.28876 22.3364 7.93383 22.9822 8.73107 22.9822H40.4618C41.2591 22.9822 41.9041 22.3364 41.9041 21.5399V13.0593H86.6157C87.4115 13.0593 88.058 13.7066 88.058 14.5017V48.9535C85.4067 46.3332 81.8231 44.7901 77.9618 44.7901C70.4963 44.7901 64.3382 50.4925 63.612 57.7709H4.40415V14.5017C4.40415 13.7066 5.05066 13.0593 5.84645 13.0593ZM53.4655 83.7324H38.9965C40.7202 80.9675 43.0457 75.7934 43.3068 67.867H49.1552C49.4162 75.7934 51.742 80.9675 53.4655 83.7324ZM77.9618 70.7517C74.1026 70.7517 70.5179 68.8346 68.3699 65.6212C67.0966 63.7233 66.4234 61.5077 66.4234 59.2132C66.4234 52.851 71.5996 47.6747 77.9618 47.6747C82.2999 47.6747 86.2297 50.0769 88.2172 53.9446L88.2213 53.9509C89.0581 55.5609 89.5003 57.38 89.5003 59.2132C89.5003 65.5754 84.324 70.7517 77.9618 70.7517Z" />
<path d="M85.7112 53.5446L80.642 51.5079C78.9137 50.8247 77.0108 50.8233 75.2743 51.5107L70.2121 53.5446C69.4726 53.8412 69.1149 54.6813 69.412 55.4207C69.7079 56.1595 70.55 56.5165 71.2881 56.2208L76.3432 54.1897C77.3869 53.7777 78.5391 53.7777 79.5729 54.1868L84.635 56.2206C84.8112 56.2918 84.9942 56.3255 85.173 56.3255C85.7434 56.3248 86.2857 55.9833 86.5111 55.4205C86.8084 54.6813 86.4507 53.8412 85.7112 53.5446ZM84.3788 59.3632L81.1843 57.759C79.1364 56.7449 76.7883 56.7427 74.732 57.7626L71.5445 59.3634C70.8332 59.7204 70.5458 60.5874 70.9035 61.2993C71.2612 62.0113 72.1261 62.3008 72.8402 61.941L76.0207 60.3438C77.2531 59.7312 78.6714 59.7317 79.8954 60.3402L83.0829 61.941C83.2913 62.0452 83.5125 62.0946 83.7294 62.0946C84.2577 62.0946 84.7661 61.8038 85.0196 61.2995C85.3775 60.5872 85.0901 59.7202 84.3788 59.3632ZM81.4857 63.6865L79.8913 62.8963C78.6814 62.2907 77.2405 62.2907 76.0391 62.8934L74.4375 63.6863C73.7234 64.0399 73.4305 64.9047 73.784 65.6189C74.1376 66.3308 74.9995 66.6259 75.7165 66.271L77.3251 65.4752C77.7222 65.2765 78.1969 65.2752 78.6055 65.4781L80.207 66.271C80.4127 66.373 80.631 66.421 80.845 66.421C81.3759 66.421 81.8873 66.1265 82.1395 65.6189C82.4928 64.9049 82.1999 64.0401 81.4857 63.6865ZM50.5578 39.0173H52.0001V43.3442C52.0001 45.7302 53.9411 47.6711 56.327 47.6711C57.496 47.6711 58.5848 47.2141 59.3665 46.4113C60.1977 45.6034 60.654 44.5139 60.654 43.3442V39.6988L73.1811 41.6223C73.3374 41.6484 73.4937 41.661 73.6502 41.661C74.3207 41.661 74.9757 41.4245 75.4967 40.9821C76.1474 40.432 76.5193 39.6263 76.5193 38.7721V36.1327C79.7011 36.1327 82.2886 33.5446 82.2886 30.3634V28.9211C82.2886 25.7399 79.7011 23.1519 76.5193 23.1519V20.6419C76.5193 19.7574 76.1249 18.9341 75.4362 18.3835C74.7475 17.8329 73.8586 17.6279 72.9938 17.8237L56.1623 21.7096H50.5578C47.3761 21.7096 44.7886 24.2976 44.7886 27.4788V33.2481C44.7886 36.4293 47.3761 39.0173 50.5578 39.0173ZM60.6684 33.0173C60.7982 32.224 61.5482 31.6904 62.327 31.8202L70.9809 33.2625C71.7741 33.3923 72.3078 34.1423 72.178 34.9211C72.0626 35.6279 71.4424 36.1327 70.7501 36.1327C70.678 36.1327 70.5915 36.1327 70.5193 36.1183L61.8655 34.6759C61.0722 34.5461 60.5386 33.7961 60.6684 33.0173ZM57.7693 43.3442C57.7693 43.7295 57.6215 44.0843 57.3285 44.371C57.0666 44.6394 56.7116 44.7865 56.327 44.7865C55.5312 44.7865 54.8847 44.1393 54.8847 43.3442V39.0173H56.2158L57.7693 39.2558V43.3442ZM79.404 28.9211V30.3634C79.404 31.9543 78.1095 33.2481 76.5193 33.2481V26.0365C78.1095 26.0365 79.404 27.3303 79.404 28.9211ZM47.6732 27.4788C47.6732 25.888 48.9677 24.5942 50.5578 24.5942H54.8847V36.1327H50.5578C48.9677 36.1327 47.6732 34.8389 47.6732 33.2481V27.4788ZM8.73088 54.8827H31.8078C32.605 54.8827 33.2501 54.2369 33.2501 53.4404V50.5558H37.577C38.3743 50.5558 39.0193 49.91 39.0193 49.1134V28.9211C39.0193 28.1246 38.3743 27.4788 37.577 27.4788H15.9424C15.1452 27.4788 14.5001 28.1246 14.5001 28.9211V31.8058H8.73088C7.93365 31.8058 7.28857 32.4515 7.28857 33.2481V53.4404C7.28857 54.2369 7.93365 54.8827 8.73088 54.8827ZM26.0386 40.4596H14.5001C13.7068 40.4596 13.0578 39.8106 13.0578 39.0173C13.0578 38.224 13.7068 37.575 14.5001 37.575H26.0386C26.8318 37.575 27.4809 38.224 27.4809 39.0173C27.4809 39.8106 26.8318 40.4596 26.0386 40.4596ZM27.4809 43.3442C27.4809 44.1375 26.8318 44.7865 26.0386 44.7865H24.5963C23.803 44.7865 23.154 44.1375 23.154 43.3442C23.154 42.5509 23.803 41.9019 24.5963 41.9019H26.0386C26.8318 41.9019 27.4809 42.5509 27.4809 43.3442ZM14.5001 41.9019H18.827C19.6203 41.9019 20.2693 42.5509 20.2693 43.3442C20.2693 44.1375 19.6203 44.7865 18.827 44.7865H14.5001C13.7068 44.7865 13.0578 44.1375 13.0578 43.3442C13.0578 42.5509 13.7068 41.9019 14.5001 41.9019ZM14.5001 46.2288H26.0386C26.8318 46.2288 27.4809 46.8779 27.4809 47.6711C27.4809 48.4644 26.8318 49.1134 26.0386 49.1134H14.5001C13.7068 49.1134 13.0578 48.4644 13.0578 47.6711C13.0578 46.8779 13.7068 46.2288 14.5001 46.2288ZM17.3847 30.3634H36.1347V47.6711H33.2501V33.2481C33.2501 32.4515 32.605 31.8058 31.8078 31.8058H17.3847V30.3634Z" fill="white"/>
</g>
<defs>
<clipPath id="clip0_311_454">
<rect width="92.3077" height="92.3077" transform="translate(0.0771484 0.0771484)"/>
</clipPath>
</defs>
</svg>
