<svg width="93" height="75" viewBox="0 0 93 75" fill="white"  xmlns="http://www.w3.org/2000/svg">
<path d="M90.3765 42.1323C87.5933 38.9165 82.9499 38.6713 82.921 38.7146C82.6038 38.6713 82.3154 38.6136 82.0702 38.5271C82.0702 38.5271 82.0558 38.5271 82.0558 38.5127C81.205 38.2387 80.8012 37.8061 80.8012 37.1716C84.0747 34.0856 84.5361 29.1826 84.5506 28.9951C84.6803 27.8991 84.6948 26.8753 84.5938 25.9956C84.0314 19.5641 78.6814 18.0787 76.0568 18.1508C75.9126 18.1508 72.3652 18.0499 69.8127 20.5158C68.1544 22.1309 67.3324 24.3949 67.3468 27.2646C67.3612 27.7982 67.3901 28.375 67.4478 28.9518C67.4622 29.1682 67.9236 34.0856 71.1971 37.1716C71.1538 37.5754 70.9087 38.0657 69.9137 38.3829H69.8848C69.6541 38.4694 69.3945 38.5127 69.0917 38.5704C68.2841 38.6136 63.4677 39.0751 61.0018 42.7956C59.8914 42.6081 59.0982 42.5505 58.8387 42.536C58.1897 42.4351 57.5985 42.3053 57.0794 42.1467H57.0649C56.0843 41.815 55.3056 40.9065 54.7432 39.4212C53.9789 37.4744 53.878 35.2536 53.9068 34.648C53.9068 34.5326 53.9213 34.4317 53.9357 34.3307C60.0356 28.9663 60.872 19.9101 60.9008 19.5496C61.1171 17.6605 61.146 15.9012 61.0018 14.3726V14.3438C61.0018 14.315 61.0018 14.2717 60.9873 14.2284C59.776 0.427953 46.336 0.774045 46.3072 0.774045C46.0476 0.759625 39.9766 0.586578 35.6215 4.82623C32.7951 7.58056 31.3819 11.4885 31.4252 16.4636C31.4396 17.4298 31.4973 18.4681 31.6126 19.5064C31.6415 19.8957 32.4923 28.9663 38.5922 34.3451C38.5922 34.4172 38.6066 34.4749 38.5922 34.5615C38.5633 36.638 38.3903 39.3058 38.2317 39.7817C38.2317 39.7961 38.2173 39.7961 38.2173 39.8105C37.727 40.7623 36.7752 41.4689 35.3476 41.9304H35.3187C34.8428 42.089 34.2949 42.2188 33.6315 42.3053C33.3575 42.3197 32.5067 42.3774 31.3386 42.5937C28.6708 38.8155 23.5515 38.556 23.4073 38.556C23.0901 38.5127 22.8161 38.455 22.5709 38.3685H22.5277C21.6769 38.0945 21.2731 37.6619 21.2731 37.0274C24.5465 33.9414 25.008 29.0384 25.0224 28.8509C25.1522 27.7549 25.1666 26.7311 25.0657 25.8514C24.5033 19.4198 19.1965 17.9201 16.5287 18.0066C16.3845 18.0066 12.837 17.9057 10.299 20.3716C8.64065 21.9867 7.81868 24.2507 7.8331 27.1204C7.84752 27.654 7.87636 28.2308 7.93404 28.8076C7.94847 29.024 8.40992 33.9414 11.6834 37.0274C11.6401 37.4311 11.395 37.9214 10.4 38.2387H10.3855C10.1548 38.3108 9.89524 38.3685 9.60683 38.4117C8.92906 38.455 4.70384 38.8155 2.09371 41.8294C0.478609 43.6897 -0.170317 46.1412 0.161356 49.083L0.651655 53.5678C0.709338 54.0869 1.04101 54.5195 1.53131 54.7214C1.79088 54.8224 7.35722 56.9854 16.197 56.9854C16.4854 56.9854 16.7883 56.971 17.0767 56.971C17.0046 58.1824 17.019 59.4514 17.1776 60.7781L18.0861 69.1132C18.1438 69.6323 18.4755 70.0649 18.9658 70.2668C19.5859 70.5119 29.6658 74.4055 45.6006 74.4055C53.5463 74.4055 62.9485 73.4393 73.3458 70.5696C73.8938 70.411 74.2975 69.9495 74.3696 69.3727L75.2781 61.0376C75.4368 59.6821 75.4512 58.3842 75.3646 57.1585H75.7107C80.7147 57.1585 85.7763 56.4663 90.7802 55.0819C91.3282 54.9233 91.732 54.4618 91.8041 53.885L92.2944 49.3858C92.6405 46.444 91.9916 44.0069 90.3765 42.1323ZM70.2598 28.7067C70.2021 28.1876 70.1732 27.7117 70.1732 27.2502C70.1588 25.1881 70.6924 23.6162 71.7739 22.5635C73.4467 20.9196 75.9559 20.9629 76.0713 20.9773C76.6192 20.9629 81.3636 20.9917 81.8251 26.2985C81.8972 27.0051 81.8827 27.8126 81.7818 28.75C81.7818 28.7932 81.3492 33.4943 78.2632 35.7007C78.2199 35.7295 78.1911 35.7439 78.1478 35.7728C78.0757 35.8305 78.0036 35.8737 77.9315 35.917C76.7346 36.6524 75.307 36.6524 74.1101 35.917C74.038 35.8737 73.9659 35.816 73.8937 35.7728C73.8505 35.7439 73.8216 35.7151 73.7784 35.7007C73.6774 35.6286 73.5909 35.5565 73.5044 35.4844C70.678 33.1771 70.2598 28.7644 70.2598 28.7067ZM54.7144 44.0502L51.4265 49.7175L48.2251 46.4584L52.9983 42.1899C53.5031 42.9542 54.0799 43.5743 54.7144 44.0502ZM46.2639 48.4485L48.2396 50.4673L46.3649 52.5439C46.3216 52.5872 46.2928 52.6304 46.2495 52.6881C46.2155 52.6366 46.1769 52.5884 46.1341 52.5439L44.3604 50.5971L46.2639 48.4485ZM41.0293 39.9115C41.2023 38.902 41.2888 37.5033 41.3321 36.2487C42.8895 37.0562 44.5623 37.4744 46.2495 37.4744C47.9511 37.4744 49.6383 37.0418 51.1813 36.2198C51.2679 37.1716 51.4698 38.3252 51.8159 39.4933L46.1918 44.5117L41.0293 39.9115ZM46.2495 54.88L48.427 65.9118L46.2495 67.5846L44.0576 65.9118L46.2495 54.88ZM37.5395 6.84511C41.0148 3.44185 46.1486 3.55722 46.3072 3.57164C46.7254 3.55722 56.3295 3.34091 58.0167 13.1469C51.2967 13.6228 42.5002 9.00819 42.3992 8.96493C42.1696 8.84346 41.911 8.7873 41.6517 8.80256C41.3923 8.81781 41.1421 8.9039 40.9283 9.05146L34.3814 13.6372C34.7707 10.8108 35.8234 8.53232 37.5395 6.84511ZM34.3814 19.2324C34.3093 18.5114 34.266 17.8192 34.2372 17.1558L41.8512 11.8346C44.2739 13.0171 51.8591 16.4059 58.2619 15.9301C58.2907 16.9684 58.2618 18.0499 58.1176 19.2612C58.1032 19.3622 57.238 28.6923 51.0371 33.0761C50.9837 33.1013 50.9349 33.1355 50.8929 33.1771C50.7425 33.2877 50.5886 33.3935 50.4315 33.4943C47.8214 35.1094 44.7065 35.1094 42.082 33.4943C41.9233 33.3934 41.7647 33.2924 41.6061 33.1771C41.5628 33.1338 41.5051 33.105 41.4475 33.0761C41.2312 32.9175 41.0148 32.7589 40.813 32.5858C35.2034 28.0145 34.3958 19.3477 34.3814 19.2324ZM39.717 42.4783L44.2451 46.5161L41.4619 49.6742L37.8423 43.8916C38.5633 43.5022 39.1978 43.0407 39.717 42.4783ZM10.7316 28.5192C10.674 28.0145 10.6451 27.5242 10.6451 27.0628C10.6307 25.0006 11.1643 23.4288 12.2458 22.3761C13.9186 20.7321 16.4422 20.7898 16.5431 20.7898C16.7594 20.7898 21.8211 20.66 22.2969 26.111C22.369 26.8032 22.3546 27.6107 22.2537 28.5481C22.2537 28.5913 21.7922 33.3069 18.7206 35.5132C18.6774 35.542 18.6485 35.5565 18.6053 35.5853C18.5332 35.643 18.4611 35.6863 18.389 35.7295C17.1921 36.465 15.7644 36.465 14.5675 35.7295C14.4954 35.6863 14.4233 35.6286 14.3512 35.5853C14.3079 35.5565 14.2791 35.5276 14.2358 35.5132C14.1349 35.4411 14.0484 35.369 13.9474 35.2969C11.1498 33.004 10.7316 28.5913 10.7316 28.5192ZM17.5237 54.159C10.4 54.3465 5.2374 52.9765 3.36272 52.3709L2.97337 48.7657C2.72822 46.6315 3.16084 44.9154 4.22796 43.6608C6.20358 41.368 9.77988 41.1949 9.80872 41.1949C9.85198 41.1949 9.90966 41.1949 9.95293 41.1805C10.4144 41.1228 10.8614 41.0219 11.2652 40.8921C11.2796 40.8921 11.2796 40.8777 11.294 40.8777C12.8947 40.3585 13.6879 39.45 14.1061 38.5992C15.6193 39.2267 17.319 39.2319 18.836 38.6136C19.3263 39.7096 20.3069 40.5604 21.6913 41.0075H21.7201C22.1239 41.1372 22.5565 41.2382 23.1766 41.3247C23.2199 41.3247 26.277 41.4833 28.3103 43.3292C25.7579 44.1511 22.7872 45.6076 20.5232 48.2322C19.0379 49.9338 18.0573 51.9238 17.5237 54.159ZM72.5238 60.7204L71.7162 68.1181C45.0382 75.2275 24.9359 69.3295 20.7972 67.9451L19.9752 60.4752C19.4993 56.1779 20.379 52.6737 22.5998 50.0924C24.9936 47.3092 28.4978 46.0835 30.9493 45.5355C30.9781 45.5355 30.9925 45.5211 31.0214 45.5211C32.6365 45.1606 33.7901 45.1029 33.819 45.1029C33.8622 45.1029 33.9199 45.1029 33.9632 45.0885C34.3814 45.0308 34.7707 44.9587 35.1312 44.8722L40.0631 52.7602C40.2938 53.1352 40.6976 53.3803 41.1302 53.4091H41.2456C41.6493 53.4091 42.0243 53.2361 42.2983 52.9333L42.5002 52.7025L43.5817 53.8994L41.1302 66.229C41.0293 66.7482 41.2312 67.2962 41.6493 67.6134L45.3843 70.4543C45.6294 70.6417 45.9323 70.7427 46.2351 70.7427C46.5379 70.7427 46.8408 70.6417 47.0859 70.4543L50.8064 67.6134C51.2246 67.2962 51.4265 66.7482 51.3256 66.229L48.8885 53.8994L50.1863 52.4574L50.7055 52.9909C50.965 53.2649 51.3256 53.4091 51.7005 53.4091C51.7582 53.4091 51.8159 53.4091 51.8735 53.3947C52.3062 53.337 52.6955 53.0919 52.9118 52.717L57.3245 45.1317C57.7139 45.2183 58.1032 45.2904 58.5214 45.348C58.5647 45.348 58.6224 45.3625 58.6656 45.3625C58.7377 45.3625 65.8326 45.6653 69.8704 50.3376C72.1056 52.9188 72.9997 56.4086 72.5238 60.7204ZM89.5401 49.083L89.1507 52.6304C84.4352 53.8418 79.662 54.3897 74.9609 54.3176C74.4273 52.1113 73.4467 50.1645 72.0047 48.4917C69.6974 45.8095 66.6402 44.3386 64.0589 43.531C66.0778 41.541 69.308 41.368 69.3368 41.368C69.3945 41.368 69.4666 41.3535 69.5243 41.3535C69.9281 41.2814 70.3463 41.1949 70.7645 41.0651H70.7933C70.8077 41.0651 70.8077 41.0507 70.8222 41.0507H70.851C72.4373 40.5316 73.2304 39.6375 73.6342 38.7867C75.1474 39.4142 76.8471 39.4194 78.3641 38.8011C78.8544 39.8971 79.8206 40.7335 81.1906 41.1949C81.205 41.1949 81.2194 41.2093 81.2338 41.2238C81.652 41.3535 82.0991 41.4401 82.7047 41.5266C82.7336 41.5266 86.3099 41.7141 88.2711 43.9925C89.3382 45.2183 89.7708 46.9343 89.5401 49.083Z" />
</svg>
