<svg width="30" height="44" viewBox="0 0 30 44" fill="none" xmlns="http://www.w3.org/2000/svg">
<path d="M15.1562 23.7129L9.01277 41.4279L7.44852 35.924L2.81253 39.2776L8.95601 21.5627L15.1562 23.7129Z" fill="#BB1719"/>
<path d="M20.9404 23.4375L28.9092 40.4099L23.9468 37.5613L22.9688 43.1989L15.0001 26.2266L20.9404 23.4375Z" fill="#BB1719"/>
<path d="M15 0.188068L17.5257 2.7674L17.5868 2.82987L17.6681 2.79768L21.0246 1.46863L22.2828 4.85225L22.3132 4.93419L22.4006 4.93785L26.0074 5.08888L25.7806 8.69173L25.7751 8.77899L25.8534 8.81786L29.087 10.4229L27.4144 13.622L27.3739 13.6995L27.4296 13.7668L29.7308 16.5483L26.9016 18.7905L26.8331 18.8448L26.8566 18.929L27.8275 22.406L24.3309 23.3036L24.2462 23.3253L24.2335 23.4118L23.7062 26.9831L20.1468 26.3809L20.0606 26.3664L20.0138 26.4402L18.0796 29.4883L15.0728 27.4904L15 27.442L14.9272 27.4904L11.9204 29.4883L9.98622 26.4402L9.93937 26.3664L9.85317 26.3809L6.29376 26.9831L5.76654 23.4118L5.75378 23.3253L5.66909 23.3036L2.17249 22.406L3.14342 18.929L3.16693 18.8448L3.09841 18.7905L0.269209 16.5483L2.5704 13.7668L2.62614 13.6995L2.58563 13.622L0.913015 10.4229L4.14658 8.81786L4.22489 8.77899L4.2194 8.69173L3.99259 5.08888L7.59941 4.93785L7.68676 4.93419L7.71723 4.85225L8.97544 1.46863L12.3319 2.79768L12.4132 2.82987L12.4743 2.7674L15 0.188068Z" fill="white" stroke="#BB1719" stroke-width="0.263158"/>
<path d="M15 2.8125L17.1285 4.98621L19.9571 3.86617L21.0175 6.71769L24.0571 6.84497L23.8659 9.88125L26.591 11.2339L25.1814 13.9299L27.1207 16.2739L24.7364 18.1636L25.5547 21.0938L22.6079 21.8502L22.1636 24.8599L19.164 24.3524L17.5339 26.9212L15 25.2375L12.4661 26.9212L10.836 24.3524L7.83637 24.8599L7.39206 21.8502L4.44532 21.0938L5.26356 18.1636L2.87926 16.2739L4.81858 13.9299L3.409 11.2339L6.13407 9.88125L5.94292 6.84497L8.98255 6.71769L10.0429 3.86617L12.8715 4.98621L15 2.8125Z" fill="#BB1719"/>
</svg>
