<svg width="93" height="93" viewBox="0 0 93 93" fill="white" xmlns="http://www.w3.org/2000/svg">
<path d="M30.3651 26.0384H62.0959C64.008 26.0367 65.8412 25.2763 67.1933 23.9243C68.5453 22.5722 69.3057 20.739 69.3074 18.8269V7.28844C69.3057 5.37637 68.5453 3.54311 67.1933 2.19107C65.8412 0.83903 64.008 0.0786762 62.0959 0.0769043L30.3651 0.0769043C28.453 0.0786762 26.6198 0.83903 25.2677 2.19107C23.9157 3.54311 23.1554 5.37637 23.1536 7.28844V18.8269C23.1554 20.739 23.9157 22.5722 25.2677 23.9243C26.6198 25.2763 28.453 26.0367 30.3651 26.0384ZM26.0382 7.28844C26.0394 6.14126 26.4957 5.04141 27.3069 4.23023C28.1181 3.41905 29.2179 2.96277 30.3651 2.96152H62.0959C63.2431 2.96277 64.3429 3.41905 65.1541 4.23023C65.9653 5.04141 66.4216 6.14126 66.4228 7.28844V18.8269C66.4216 19.9741 65.9653 21.0739 65.1541 21.8851C64.3429 22.6963 63.2431 23.1526 62.0959 23.1538H30.3651C29.2179 23.1526 28.1181 22.6963 27.3069 21.8851C26.4957 21.0739 26.0394 19.9741 26.0382 18.8269V7.28844ZM62.0959 66.4231H30.3651C28.453 66.4248 26.6198 67.1852 25.2677 68.5372C23.9157 69.8893 23.1554 71.7225 23.1536 73.6346V85.1731C23.1554 87.0851 23.9157 88.9184 25.2677 90.2704C26.6198 91.6225 28.453 92.3828 30.3651 92.3846H62.0959C64.008 92.3828 65.8412 91.6225 67.1933 90.2704C68.5453 88.9184 69.3057 87.0851 69.3074 85.1731V73.6346C69.3057 71.7225 68.5453 69.8893 67.1933 68.5372C65.8412 67.1852 64.008 66.4248 62.0959 66.4231ZM66.4228 85.1731C66.4216 86.3202 65.9653 87.4201 65.1541 88.2313C64.3429 89.0425 63.2431 89.4987 62.0959 89.5H30.3651C29.2179 89.4987 28.1181 89.0425 27.3069 88.2313C26.4957 87.4201 26.0394 86.3202 26.0382 85.1731V73.6346C26.0394 72.4874 26.4957 71.3876 27.3069 70.5764C28.1181 69.7652 29.2179 69.3089 30.3651 69.3077H62.0959C63.2431 69.3089 64.3429 69.7652 65.1541 70.5764C65.9653 71.3876 66.4216 72.4874 66.4228 73.6346V85.1731ZM85.1728 14.5H73.6344C73.2518 14.5 72.885 14.6519 72.6145 14.9224C72.344 15.1929 72.192 15.5598 72.192 15.9423C72.192 16.3248 72.344 16.6917 72.6145 16.9622C72.885 17.2326 73.2518 17.3846 73.6344 17.3846H85.1728C86.32 17.3858 87.4198 17.8421 88.231 18.6533C89.0422 19.4645 89.4985 20.5643 89.4997 21.7115V41.9038C89.4985 43.051 89.0422 44.1509 88.231 44.962C87.4198 45.7732 86.32 46.2295 85.1728 46.2308H70.7497L72.3667 44.6138C72.6327 44.3424 72.7808 43.977 72.7788 43.5971C72.7769 43.2171 72.6251 42.8533 72.3565 42.5846C72.0878 42.3159 71.7239 42.1641 71.344 42.1622C70.964 42.1603 70.5987 42.3084 70.3273 42.5744L66.2483 46.6534C66.1143 46.7873 66.0081 46.9462 65.9356 47.1212C65.8631 47.2962 65.8258 47.4837 65.8258 47.6731C65.8258 47.8625 65.8631 48.05 65.9356 48.225C66.0081 48.3999 66.1143 48.5589 66.2483 48.6928L70.3273 52.7718C70.5987 53.0378 70.964 53.1859 71.344 53.184C71.7239 53.182 72.0878 53.0302 72.3565 52.7616C72.6251 52.4929 72.7769 52.129 72.7788 51.7491C72.7808 51.3691 72.6327 51.0038 72.3667 50.7324L70.7497 49.1154H85.1728C87.0849 49.1136 88.9181 48.3532 90.2702 47.0012C91.6222 45.6492 92.3826 43.8159 92.3844 41.9038V21.7115C92.3826 19.7994 91.6222 17.9662 90.2702 16.6141C88.9181 15.2621 87.0849 14.5018 85.1728 14.5ZM16.3646 74.305C16.0932 74.0391 15.7278 73.891 15.3479 73.8929C14.9679 73.8948 14.6041 74.0466 14.3354 74.3153C14.0667 74.584 13.9149 74.9478 13.913 75.3278C13.9111 75.7077 14.0592 76.0731 14.3252 76.3445L15.942 77.9615H7.2882C6.14101 77.9603 5.04117 77.504 4.22999 76.6928C3.4188 75.8816 2.96253 74.7818 2.96128 73.6346V53.4423C2.96253 52.2951 3.4188 51.1953 4.22999 50.3841C5.04117 49.5729 6.14101 49.1166 7.2882 49.1154H24.5959C24.9784 49.1154 25.3453 48.9634 25.6158 48.6929C25.8862 48.4224 26.0382 48.0556 26.0382 47.6731C26.0382 47.2905 25.8862 46.9237 25.6158 46.6532C25.3453 46.3827 24.9784 46.2308 24.5959 46.2308H7.2882C5.37612 46.2325 3.54287 46.9929 2.19083 48.3449C0.838786 49.697 0.0784321 51.5302 0.0766602 53.4423L0.0766602 73.6346C0.0784321 75.5467 0.838786 77.3799 2.19083 78.732C3.54287 80.084 5.37612 80.8444 7.2882 80.8461H15.942L14.3251 82.4631C14.1889 82.5965 14.0806 82.7556 14.0063 82.9312C13.932 83.1067 13.8933 83.2952 13.8923 83.4858C13.8914 83.6764 13.9282 83.8654 14.0007 84.0416C14.0732 84.2179 14.1799 84.3781 14.3147 84.5129C14.4495 84.6477 14.6097 84.7544 14.786 84.8269C14.9622 84.8994 15.1512 84.9362 15.3418 84.9353C15.5324 84.9343 15.7209 84.8956 15.8965 84.8213C16.072 84.747 16.2311 84.6387 16.3645 84.5025L20.4435 80.4235C20.5775 80.2896 20.6837 80.1307 20.7562 79.9557C20.8287 79.7807 20.866 79.5932 20.866 79.4038C20.866 79.2144 20.8287 79.0269 20.7562 78.8519C20.6837 78.6769 20.5775 78.518 20.4435 78.3841L16.3646 74.305ZM46.2305 28.9231C42.8074 28.9231 39.4611 29.9381 36.6149 31.8399C33.7686 33.7417 31.5503 36.4448 30.2403 39.6074C28.9303 42.77 28.5876 46.2499 29.2554 49.6073C29.9232 52.9647 31.5716 56.0486 33.9921 58.4691C36.4126 60.8897 39.4966 62.5381 42.8539 63.2059C46.2113 63.8737 49.6913 63.5309 52.8539 62.221C56.0164 60.911 58.7195 58.6926 60.6213 55.8464C62.5231 53.0002 63.5382 49.6539 63.5382 46.2308C63.5332 41.642 61.7081 37.2426 58.4634 33.9979C55.2186 30.7532 50.8193 28.9281 46.2305 28.9231ZM46.2305 60.6538C43.3779 60.6538 40.5893 59.8079 38.2175 58.2231C35.8456 56.6383 33.997 54.3857 32.9053 51.7502C31.8137 49.1148 31.528 46.2147 32.0846 43.4169C32.6411 40.6191 34.0147 38.0492 36.0318 36.0321C38.049 34.015 40.6189 32.6413 43.4167 32.0848C46.2145 31.5283 49.1145 31.8139 51.75 32.9056C54.3855 33.9972 56.638 35.8459 58.2229 38.2177C59.8077 40.5896 60.6536 43.3781 60.6536 46.2308C60.6491 50.0546 59.1281 53.7206 56.4242 56.4244C53.7203 59.1283 50.0544 60.6493 46.2305 60.6538ZM52.7209 44.7884H50.292C50.1438 44.3526 49.9262 43.9436 49.6475 43.5771C49.1318 42.9498 48.4462 42.4844 47.6728 42.2368V38.2981C47.6728 37.9155 47.5209 37.5487 47.2504 37.2782C46.9799 37.0077 46.613 36.8558 46.2305 36.8558C45.848 36.8558 45.4811 37.0077 45.2106 37.2782C44.9402 37.5487 44.7882 37.9155 44.7882 38.2981V42.1679C43.871 42.4919 43.09 43.116 42.5719 43.9393C42.0537 44.7625 41.8287 45.7367 41.9334 46.7038C42.038 47.6709 42.4662 48.5743 43.1485 49.2677C43.8308 49.961 44.7272 50.4036 45.6925 50.5239C45.8737 50.5472 46.0562 50.5594 46.239 50.5605C47.1318 50.5583 48.0021 50.2795 48.7301 49.7625C49.458 49.2454 50.0078 48.5154 50.3039 47.6731H52.7209C53.1034 47.6731 53.4703 47.5211 53.7408 47.2506C54.0112 46.9801 54.1632 46.6133 54.1632 46.2308C54.1632 45.8482 54.0112 45.4814 53.7408 45.2109C53.4703 44.9404 53.1034 44.7884 52.7209 44.7884ZM47.115 47.3716C46.9665 47.4888 46.796 47.5748 46.6135 47.6247C46.4311 47.6745 46.2405 47.6872 46.053 47.6618C45.6885 47.6172 45.3548 47.4352 45.1199 47.153C44.8849 46.8708 44.7665 46.5095 44.7888 46.143C44.8111 45.7765 44.9723 45.4322 45.2397 45.1805C45.5071 44.9288 45.8604 44.7886 46.2276 44.7884C46.2879 44.788 46.3482 44.7918 46.4079 44.7997C46.6912 44.8352 46.9576 44.9538 47.1735 45.1407C47.3893 45.3275 47.5449 45.5742 47.6206 45.8495C47.6963 46.1248 47.6887 46.4163 47.5987 46.6872C47.5087 46.9582 47.3404 47.1964 47.115 47.3716ZM33.2497 11.6154H59.2113C59.5938 11.6154 59.9607 11.4634 60.2311 11.1929C60.5016 10.9224 60.6536 10.5556 60.6536 10.1731C60.6536 9.79053 60.5016 9.42368 60.2311 9.15319C59.9607 8.88271 59.5938 8.73075 59.2113 8.73075H33.2497C32.8672 8.73075 32.5004 8.88271 32.2299 9.15319C31.9594 9.42368 31.8074 9.79053 31.8074 10.1731C31.8074 10.5556 31.9594 10.9224 32.2299 11.1929C32.5004 11.4634 32.8672 11.6154 33.2497 11.6154ZM33.2497 17.3846H47.6728C48.0553 17.3846 48.4222 17.2326 48.6927 16.9622C48.9632 16.6917 49.1151 16.3248 49.1151 15.9423C49.1151 15.5598 48.9632 15.1929 48.6927 14.9224C48.4222 14.6519 48.0553 14.5 47.6728 14.5H33.2497C32.8672 14.5 32.5004 14.6519 32.2299 14.9224C31.9594 15.1929 31.8074 15.5598 31.8074 15.9423C31.8074 16.3248 31.9594 16.6917 32.2299 16.9622C32.5004 17.2326 32.8672 17.3846 33.2497 17.3846ZM59.2113 75.0769H33.2497C32.8672 75.0769 32.5004 75.2289 32.2299 75.4994C31.9594 75.7698 31.8074 76.1367 31.8074 76.5192C31.8074 76.9017 31.9594 77.2686 32.2299 77.5391C32.5004 77.8096 32.8672 77.9615 33.2497 77.9615H59.2113C59.5938 77.9615 59.9607 77.8096 60.2311 77.5391C60.5016 77.2686 60.6536 76.9017 60.6536 76.5192C60.6536 76.1367 60.5016 75.7698 60.2311 75.4994C59.9607 75.2289 59.5938 75.0769 59.2113 75.0769ZM47.6728 80.8461H33.2497C32.8672 80.8461 32.5004 80.9981 32.2299 81.2686C31.9594 81.5391 31.8074 81.9059 31.8074 82.2884C31.8074 82.671 31.9594 83.0378 32.2299 83.3083C32.5004 83.5788 32.8672 83.7308 33.2497 83.7308H47.6728C48.0553 83.7308 48.4222 83.5788 48.6927 83.3083C48.9632 83.0378 49.1151 82.671 49.1151 82.2884C49.1151 81.9059 48.9632 81.5391 48.6927 81.2686C48.4222 80.9981 48.0553 80.8461 47.6728 80.8461Z" />
</svg>
