<svg width="767" height="511" viewBox="0 0 767 511" fill="none" xmlns="http://www.w3.org/2000/svg">
<path d="M289.727 356.552C314.805 333.652 343.369 314.203 374.992 303.364C430.465 284.349 519.718 298.339 590.037 361.061C542.565 279.731 430.34 154.613 396.359 127.774L395.832 127.34L396.359 126.389L462.039 14.3366C462.648 12.9659 463.37 11.6569 464.195 10.425C466.312 7.26742 469.076 4.68682 472.273 2.88774C475.468 1.08865 479.007 0.120246 482.608 0.0596701C486.212 -0.000906106 489.775 0.84771 493.023 2.53841C496.268 4.22911 499.107 6.71517 501.311 9.80021V9.6644L506.678 17.8137C507.38 18.7916 508.057 19.8238 508.734 20.9104C527.794 51.3615 734.262 448.095 766.738 510.057H648.871C636.833 422.751 568.972 355.9 487.017 355.9C482.151 355.9 477.311 356.144 472.546 356.633C441.412 359.665 411.775 372.486 387.281 393.522C353.623 422.381 331.389 464.057 325.112 510.057H177.828C187.408 490.498 227.759 413.108 289.727 356.552Z" fill="#FFFAF9"/>
<path d="M477.512 356.552C452.434 333.652 423.87 314.203 392.246 303.364C336.798 284.349 247.52 298.339 177.201 361.061C224.674 279.731 336.899 154.613 370.88 127.774L371.406 127.34L370.88 126.389L305.2 14.3366C304.598 12.9605 303.876 11.6504 303.043 10.425C300.927 7.26742 298.163 4.68682 294.966 2.88773C291.771 1.08865 288.232 0.120246 284.631 0.0596701C281.027 -0.000906106 277.464 0.84771 274.216 2.53841C270.971 4.22911 268.132 6.71517 265.928 9.80021V9.6644L260.561 17.8137C259.884 18.7916 259.182 19.8238 258.504 20.9104C239.445 51.3615 33.0018 448.095 0.500488 510.057H118.368C130.43 422.751 198.267 355.9 280.222 355.9C285.105 355.9 289.927 356.144 294.692 356.633C325.824 359.673 355.459 372.494 379.958 393.522C413.6 422.392 435.822 464.065 442.102 510.057H589.486C579.831 490.498 539.455 413.108 477.512 356.552Z" fill="#F7F7F7"/>
</svg>
