<svg width="300" height="300" viewBox="0 0 300 300" fill="none" xmlns="http://www.w3.org/2000/svg">
<rect x="63.4248" y="58.2822" width="169.721" height="209.151" />
<path d="M300 150C300 232.843 232.843 300 150 300C67.1573 300 0 232.843 0 150C0 67.1573 67.1573 0 150 0C232.843 0 300 67.1573 300 150ZM32.568 150C32.568 214.856 85.1441 267.432 150 267.432C214.856 267.432 267.432 214.856 267.432 150C267.432 85.1441 214.856 32.568 150 32.568C85.1441 32.568 32.568 85.1441 32.568 150Z" fill="white"/><path d="M150 289.72C112.944 289.72 77.4059 274.999 51.2034 248.797C25.0009 222.594 10.2805 187.056 10.2805 150C10.2805 112.944 25.0009 77.4057 51.2034 51.2032C77.4059 25.0007 112.944 10.2803 150 10.2803L150 12.2963C113.479 12.2963 78.4534 26.8043 52.6289 52.6287C26.8045 78.4532 12.2965 113.479 12.2965 150C12.2965 186.521 26.8045 221.547 52.629 247.371C78.4534 273.195 113.479 287.704 150 287.704L150 289.72Z"/>
<path d="M150 289.72C112.944 289.72 77.4059 274.999 51.2034 248.797C25.0009 222.594 10.2805 187.056 10.2805 150C10.2805 112.944 25.0009 77.4057 51.2034 51.2032C77.4059 25.0007 112.944 10.2803 150 10.2803L150 12.2963C113.479 12.2963 78.4534 26.8043 52.6289 52.6287C26.8045 78.4532 12.2965 113.479 12.2965 150C12.2965 186.521 26.8045 221.547 52.629 247.371C78.4534 273.195 113.479 287.704 150 287.704L150 289.72Z" stroke="#F05A32" stroke-opacity="0.4" stroke-width="2.87225" /><path d="M150 289.72C187.056 289.72 222.594 274.999 248.797 248.797C274.999 222.594 289.72 187.056 289.72 150C289.72 112.944 274.999 77.4057 248.797 51.2032C222.594 25.0007 187.056 10.2803 150 10.2803L150 12.2963C186.521 12.2963 221.547 26.8043 247.371 52.6287C273.195 78.4532 287.704 113.479 287.704 150C287.704 186.521 273.195 221.547 247.371 247.371C221.547 273.195 186.521 287.704 150 287.704L150 289.72Z"/>
<path d="M150 289.72C187.056 289.72 222.594 274.999 248.797 248.797C274.999 222.594 289.72 187.056 289.72 150C289.72 112.944 274.999 77.4057 248.797 51.2032C222.594 25.0007 187.056 10.2803 150 10.2803L150 12.2963C186.521 12.2963 221.547 26.8043 247.371 52.6287C273.195 78.4532 287.704 113.479 287.704 150C287.704 186.521 273.195 221.547 247.371 247.371C221.547 273.195 186.521 287.704 150 287.704L150 289.72Z" stroke="#F05A32" stroke-opacity="0.4" stroke-width="2.87225" />
<circle cx="149.817" cy="149.817" r="125.167" stroke="#F05A32" stroke-opacity="0.4" stroke-width="8.17726"/>
<rect x="0" y="143.925" width="25.2336" height="11.215" fill="white"/>
<rect x="270" y="143.925" width="25.2336" height="11.215" fill="white"/>
<rect x="144.859" y="0" width="11.215" height="30.8411" fill="white"/>
<rect x="145.714" y="270" width="10.2861" height="22.2866" fill="white"/>
<circle cx="150" cy="150.001" r="123.403" stroke="#F05A32" stroke-width="2.72575"/>
</svg>
